<?xml version="1.0" encoding="UTF-8" standalone="no"?>
<!-- Created with Inkscape (http://www.inkscape.org/) -->

<svg
   width="191.72238mm"
   height="62.54274mm"
   viewBox="0 0 191.72237 62.542747"
   version="1.1"
   id="svg1"
   xml:space="preserve"
   xmlns="http://www.w3.org/2000/svg"
   xmlns:svg="http://www.w3.org/2000/svg"><defs
     id="defs1" /><g
     id="layer5"
     transform="translate(-5.0453851,-5.0836336)"><g
       id="layer6"><path
         style="fill:#3f088c;fill-opacity:1"
         d="m 34.721204,65.980232 c -3.26188,-3.38849 -5.41149,-5.39052 -5.69852,-5.30729 -0.1556,0.0451 -0.19685,-0.004 -0.0917,-0.1092 0.2363,-0.2363 -2.53282,-3.07644 -2.82402,-2.89647 -0.11545,0.0713 -0.17948,0.0316 -0.14228,-0.0882 0.10475,-0.33762 -2.2262,-2.82865 -2.49273,-2.66393 -0.12986,0.0803 -0.31626,0.0162 -0.41421,-0.14225 -0.11124,-0.17997 -0.0714,-0.22223 0.10605,-0.11255 0.15629,0.0966 0.28416,0.0836 0.28416,-0.0289 0,-0.39049 -4.08799,-4.26909 -4.29804,-4.07789 -0.11616,0.10574 -0.14149,0.0699 -0.0563,-0.0796 0.28452,-0.49926 -1.01759,-1.45027 -1.86412,-1.36147 -0.6649,0.0697 -0.72989,0.0292 -0.46499,-0.28999 0.31412,-0.37849 0.002,-0.81978 -0.40324,-0.56953 -0.10727,0.0663 -0.21239,-0.10982 -0.2336,-0.39136 -0.0524,-0.69501 -0.27122,-0.86275 -1.3955,-1.06953 -0.82051,-0.1509 -0.9405,-0.11923 -0.81246,0.21444 0.10422,0.27159 0.0424,0.35011 -0.20192,0.25637 -0.26905,-0.10324 -0.29109,-0.24922 -0.0934,-0.61859 0.2028,-0.37894 0.41466,-0.4492 0.98001,-0.32503 0.56004,0.12301 0.72127,0.0715 0.72127,-0.23033 0,-0.21381 0,-0.47182 0,-0.57335 0,-0.10153 -0.11076,-0.19844 -0.24613,-0.21536 -0.13537,-0.0169 -0.34324,-0.0446 -0.46194,-0.0615 -0.1187,-0.0169 -1.08783,-0.93449 -2.15363,-2.03903 -1.0658,-1.10454 -3.0730895,-3.17738 -4.4606485,-4.60631 l -2.5228304,-2.598048 3.6e-4,-9.4846 3.5e-4,-9.4846 2.4506904,-2.43986 c 1.347869,-1.34193 2.3827985,-2.54969 2.2998385,-2.68392 -0.083,-0.13424 -0.0428,-0.17728 0.0893,-0.0957 0.13207,0.0816 1.76884,-1.3965 3.63726,-3.2847204 l 3.39713,-3.43312 h 5.33318 5.33317 l 4.29031,4.30369 c 3.75847,3.7702104 4.32165,4.2480804 4.54318,3.8549904 0.13908,-0.2468 1.95932,-2.17781 4.04497,-4.2911404 l 3.79208,-3.84242 5.39298,-0.0151 5.39298,-0.0152 0.98037,0.99022 c 0.53921,0.54462 0.9158,1.09471 0.83687,1.22242 -0.18603,0.301 0.96177,1.05221 1.66205,1.08777 0.33656,0.0171 0.5742,0.21396 0.62739,0.51976 0.11282,0.64855 6.45617,7.0320104 6.79597,6.8389404 0.14451,-0.0821 0.18331,-0.0613 0.0862,0.0462 -0.0971,0.10751 0.0413,0.47248 0.30766,0.81104 0.45818,0.58248 0.4842,1.03117 0.4842,8.34997 0,4.43218 -0.0931,7.67685 -0.21815,7.59959 -0.11998,-0.0742 -0.27582,0.0857 -0.34631,0.35524 -0.0774,0.29593 0.0247,0.57562 0.2577,0.70601 0.32003,0.17909 0.34761,0.4271 0.16171,1.45374 -0.25691,1.41872 -1.20622,2.56758 -7.10582,8.599498 -2.57107,2.62874 -3.59323,3.51781 -4.06113,3.53235 -0.34391,0.0107 -0.48684,0.0753 -0.31762,0.14357 0.62129,0.2507 0.93652,-0.11416 -6.09041,7.04933 -2.52494,2.574 -3.47465,3.69435 -3.24957,3.83346 0.42477,0.26252 -0.28286,0.88279 -0.7866,0.68949 -0.19206,-0.0737 -0.54291,0.08 -0.77967,0.34166 -0.25942,0.28665 -0.78207,0.487 -1.31531,0.50421 -0.48666,0.0157 -0.7187,0.074 -0.51564,0.1296 0.46831,0.12817 1.2739,1.50897 0.98467,1.68772 -0.11923,0.0737 -0.35351,-0.0124 -0.52063,-0.1913 -0.24705,-0.26447 -0.84793,0.25218 -3.21407,2.76354 -1.60062,1.69886 -3.07076,3.22627 -3.26698,3.39425 -0.29667,0.25397 -0.65954,-0.009 -2.154,-1.56158 z m 1.86069,-5.07517 c -0.0908,-0.14694 -0.0575,-0.20067 0.0739,-0.11942 0.35604,0.22004 6.80973,-6.38685 6.58847,-6.74486 -0.10289,-0.16647 -0.078,-0.23019 0.0573,-0.14658 0.33317,0.20592 1.60806,-1.02501 1.40384,-1.35543 -0.0915,-0.1481 -0.0559,-0.20099 0.0791,-0.11754 0.13502,0.0834 1.50372,-1.14548 3.04156,-2.73093 1.53784,-1.58546 4.56933,-4.68247 6.73664,-6.88225 l 3.94056,-3.99961 h -7.13889 -7.13888 l -0.84426,-4.236308 c -0.77755,-3.90156 -0.86094,-4.15925 -1.0554,-3.26121 -0.49568,2.28908 -3.84494,15.555758 -4.08313,16.173588 -0.23023,0.59717 -0.38923,0.67685 -1.35065,0.67685 h -1.0897 l -0.52253,-1.78444 c -0.2874,-0.98144 -1.1451,-3.7227 -1.90601,-6.0917 l -1.38347,-4.307268 -0.3608,0.86146 c -0.19844,0.4738 -0.45637,1.11066 -0.57317,1.41524 -0.21191,0.552588 -0.22493,0.553788 -6.0025,0.553788 -4.83877,0 -5.79014,-0.0575 -5.79014,-0.34963 0,-0.192308 0.33228,-0.422618 0.73839,-0.511818 0.40611,-0.0892 0.73839,-0.26139 0.73839,-0.38266 0,-0.12928 -0.23756,-0.13016 -0.57434,-0.002 -0.74513,0.2833 -1.40639,-0.0712 -0.96191,-0.51565 0.16808,-0.16808 0.3056,-0.40648 0.3056,-0.52978 0,-0.12329 -0.21329,0.0373 -0.47397,0.35689 -0.42773,0.52437 -0.49034,0.53904 -0.64166,0.15033 -0.19298,-0.4957 -0.62841,-0.55727 -1.03879,-0.14689 -0.19528,0.19529 -0.20794,0.42565 -0.0406,0.73839 0.16115,0.30113 0.16019,0.45455 -0.003,0.45455 -0.13538,0 -0.36248,-0.21739 -0.50468,-0.48309 -0.16369,-0.30586 -0.41519,-0.43279 -0.68551,-0.34597 -0.34922,0.11214 -0.36188,0.091 -0.0695,-0.11599 0.19659,-0.13921 0.4458,-0.1985 0.55379,-0.13176 0.39579,0.24461 0.72291,-0.18512 0.41935,-0.55089 -0.16123,-0.19427 -0.22199,-0.42439 -0.13501,-0.51137 0.087,-0.087 0.15814,-0.044 0.15814,0.0954 0,0.13945 0.2492,0.23649 0.55379,0.21565 0.34761,-0.0238 0.52324,-0.17164 0.47175,-0.39712 -0.0451,-0.19757 0.0102,-0.26693 0.12306,-0.15412 0.11281,0.11281 0.20511,0.3251 0.20511,0.47175 0,0.14665 0.13852,0.31282 0.30783,0.36925 0.20472,0.0682 0.25254,-0.0415 0.14277,-0.32753 -0.11751,-0.30621 -0.0763,-0.3753 0.14291,-0.2398 0.25795,0.15943 7.18976,0.20383 9.10224,0.0583 0.81393,-0.0619 1.36305,-0.90593 2.27108,-3.49063 0.42802,-1.21834 0.90105,-2.29654 1.05119,-2.39599 0.44253,-0.29315 1.56415,-0.21407 1.69206,0.11929 0.0649,0.16922 0.91747,2.71666 1.89456,5.66098 0.97709,2.944328 1.86554,5.353318 1.97433,5.353318 0.1088,0 0.5814,-1.57831 1.05024,-3.507348 0.64289,-2.64518 0.78542,-3.59458 0.57985,-3.86225 -0.20497,-0.26689 -0.19912,-0.31083 0.0236,-0.17717 0.35519,0.21315 0.59672,-0.60667 1.80115,-6.11342 1.13315,-5.18087 1.18446,-5.29178 2.44814,-5.29178 1.12803,0 1.05326,-0.16132 1.71106,3.69194 0.62565,3.66498 1.71363,9.38906 1.85957,9.78365 0.0875,0.23659 1.78844,0.30766 7.36316,0.30766 h 7.24936 l 0.88063,-1.02882 0.88063,-1.02882 v -7.60911 -7.60911 l -4.61492,-4.76691 -4.61493,-4.7669104 -3.43234,-0.009 c -3.39514,-0.009 -3.43983,-0.002 -4.12267,0.65215 -0.66245,0.6346704 -0.95595,1.2547504 -0.4442,0.9384704 0.40064,-0.2476 0.28053,0.0349 -0.17031,0.40059 -0.28296,0.22953 -0.3572,0.23919 -0.2316,0.0301 0.46926,-0.7811 -0.36488,-0.007 -4.32522,4.01474 l -4.25659,4.3224 -5.14753,-5.18385 -5.14753,-5.1838604 h -3.54713 -3.54713 l -1.72138,1.7593604 c -1.31061,1.33953 -1.64389,1.81494 -1.39665,1.99225 0.24844,0.17818 0.23206,0.20361 -0.0697,0.10825 -0.26577,-0.084 -1.36458,0.85203 -3.3678,2.8688 l -2.9733297,2.99345 -0.0183,7.49542 -0.0183,7.49543 3.7641097,3.82653 c 5.79332,5.889378 20.85589,21.334108 21.96014,22.517308 0.54149,0.58019 1.06939,1.00711 1.17313,0.9487 0.10374,-0.0584 0.11431,-0.22642 0.0235,-0.37335 z m -1.56582,-4.12917 c 0,-0.13537 0.11076,-0.24613 0.24613,-0.24613 0.13537,0 0.24613,0.11076 0.24613,0.24613 0,0.13537 -0.11076,0.24613 -0.24613,0.24613 -0.13537,0 -0.24613,-0.11076 -0.24613,-0.24613 z m -1.72291,-0.49226 c 0,-0.13537 0.11076,-0.24613 0.24613,-0.24613 0.13537,0 0.24613,0.11076 0.24613,0.24613 0,0.13538 -0.11076,0.24613 -0.24613,0.24613 -0.13537,0 -0.24613,-0.11075 -0.24613,-0.24613 z m 2.66128,-5.33685 c 0.17767,-0.0711 0.38996,-0.0623 0.47174,0.0194 0.0818,0.0818 -0.0636,0.13996 -0.32304,0.12927 -0.28673,-0.0118 -0.34505,-0.0701 -0.1487,-0.1487 z m -18.41356,-12.36994 c 0,-0.12738 0.11075,-0.300058 0.24613,-0.383718 0.13537,-0.0837 0.24612,0.0206 0.24612,0.231598 0,0.21105 -0.11075,0.38372 -0.24612,0.38372 -0.13538,0 -0.24613,-0.10422 -0.24613,-0.2316 z m 0.97557,-0.12681 c 0.1636,-0.197128 0.226,-0.474018 0.13867,-0.615318 -0.0873,-0.1413 -0.0415,-0.25691 0.10188,-0.25691 0.14336,0 0.26065,0.27689 0.26065,0.61532 0,0.403508 -0.13746,0.615318 -0.39933,0.615318 -0.32171,0 -0.34152,-0.0697 -0.10187,-0.35841 z m -0.97557,-0.857708 c 0,-0.12738 0.11075,-0.30005 0.24613,-0.38372 0.13537,-0.0837 0.24612,0.0206 0.24612,0.23161 0,0.21104 -0.11075,0.38372 -0.24612,0.38372 -0.13538,0 -0.24613,-0.10423 -0.24613,-0.23161 z m -1.47678,-1.24517 c 0,-0.13537 0.11729,-0.24613 0.26065,-0.24613 0.14336,0 0.19221,0.11076 0.10854,0.24613 -0.0837,0.13537 -0.20096,0.24613 -0.26065,0.24613 -0.0597,0 -0.10854,-0.11076 -0.10854,-0.24613 z m 34.95038,-4.43033 c 0,-0.13537 0.11076,-0.24613 0.24613,-0.24613 0.13537,0 0.24613,0.11076 0.24613,0.24613 0,0.13537 -0.11076,0.24613 -0.24613,0.24613 -0.13537,0 -0.24613,-0.11076 -0.24613,-0.24613 z m 1.23065,-2.4613 c 0,-0.13537 0.11076,-0.24613 0.24613,-0.24613 0.13537,0 0.24613,0.11076 0.24613,0.24613 0,0.13538 -0.11076,0.24613 -0.24613,0.24613 -0.13537,0 -0.24613,-0.11075 -0.24613,-0.24613 z m 10.11074,-1.37422 c 0.0118,-0.28673 0.0701,-0.34505 0.1487,-0.1487 0.0711,0.17767 0.0624,0.38996 -0.0194,0.47175 -0.0818,0.0818 -0.13996,-0.0636 -0.12927,-0.32305 z m -10.33744,-0.49226 c 0.0118,-0.28672 0.0701,-0.34505 0.1487,-0.1487 0.0711,0.17767 0.0624,0.38996 -0.0194,0.47175 -0.0818,0.0818 -0.13996,-0.0636 -0.12927,-0.32305 z m -0.71896,-0.34868 c 0,-0.33843 0.0559,-0.47688 0.12415,-0.30766 0.0683,0.16921 0.0683,0.44611 0,0.61532 -0.0683,0.16921 -0.12415,0.0308 -0.12415,-0.30766 z m -21.39059,-11.6889 c -0.43996,-0.19123 -0.79992,-0.4717 -0.79992,-0.62327 0,-0.1562 0.16756,-0.10804 0.38677,0.11118 0.21273,0.21273 0.60038,0.38678 0.86146,0.38678 0.26107,0 0.47468,0.11075 0.47468,0.24612 0,0.29758 0.0567,0.305 -0.92299,-0.12081 z m -9.90671,-1.84822 c -0.29702,-0.19195 -0.2581,-0.23933 0.19912,-0.24236 0.31691,-0.002 0.50103,0.10511 0.4162,0.24236 -0.18292,0.29597 -0.15734,0.29597 -0.61532,0 z m 7.74296,-0.75476 c -0.0892,-0.14438 -0.10945,-0.3153 -0.0449,-0.37981 0.0645,-0.0645 0.18289,0.0536 0.26305,0.2625 0.16642,0.43371 0.0246,0.51 -0.21812,0.11731 z m -3.0665,-0.72202 c 0,-0.13537 0.11076,-0.24613 0.24613,-0.24613 0.13537,0 0.24613,0.11076 0.24613,0.24613 0,0.13537 -0.11076,0.24613 -0.24613,0.24613 -0.13537,0 -0.24613,-0.11076 -0.24613,-0.24613 z m -0.98452,-0.26065 c 0,-0.14336 0.11076,-0.19221 0.24613,-0.10854 0.13537,0.0837 0.24613,0.20096 0.24613,0.26065 0,0.0597 -0.11076,0.10854 -0.24613,0.10854 -0.13537,0 -0.24613,-0.11729 -0.24613,-0.26065 z m 1.59984,-0.72387 c -0.0837,-0.13537 -0.0348,-0.24613 0.10854,-0.24613 0.14336,0 0.26066,0.11076 0.26066,0.24613 0,0.13538 -0.0488,0.24613 -0.10854,0.24613 -0.0597,0 -0.17699,-0.11075 -0.26066,-0.24613 z m -3.93807,-0.49225 c -0.0837,-0.13538 -0.0414,-0.24613 0.094,-0.24613 0.13537,0 0.31458,0.11075 0.39824,0.24613 0.0837,0.13537 0.0414,0.24612 -0.094,0.24612 -0.13537,0 -0.31458,-0.11075 -0.39825,-0.24612 z m -0.41534,-0.9065304 c 0.17767,-0.0711 0.38996,-0.0624 0.47175,0.0194 0.0818,0.0818 -0.0636,0.1399604 -0.32305,0.12928 -0.28672,-0.0118 -0.34505,-0.0701 -0.1487,-0.14871 z m -4.50725,35.8569084 c 0.0837,-0.13537 0.0348,-0.24613 -0.10854,-0.24613 -0.14336,0 -0.26065,0.11076 -0.26065,0.24613 0,0.13537 0.0488,0.24613 0.10854,0.24613 0.0597,0 0.17699,-0.11076 0.26065,-0.24613 z m 176.551746,21.49126 c 0.17767,-0.0711 0.38996,-0.0624 0.47174,0.0194 0.0818,0.0818 -0.0636,0.13996 -0.32304,0.12927 -0.28673,-0.0118 -0.34505,-0.0701 -0.1487,-0.1487 z M 73.412264,61.452352 v -5.41485 h 3.09148 3.09147 l -0.0764,0.92299 -0.0764,0.92299 h -1.90752 -1.90753 l 3e-5,1.41524 2e-5,1.41524 h 1.59984 1.59984 v 0.86146 c 0,0.93797 0.0332,0.92291 -1.9075,0.86459 l -1.29218,-0.0388 v 2.23301 2.23301 h -1.10759 -1.10758 z m 11.98082,5.23916 c -0.0686,-0.11098 -0.10645,-2.52584 -0.0841,-5.36636 l 0.0406,-5.16458 2.58436,-0.0622 c 2.96366,-0.0713 3.59699,0.13976 4.25879,1.41932 0.3341,0.64596 0.42299,1.27527 0.35963,2.54623 -0.0828,1.66016 -0.31999,2.1183 -1.26904,2.45071 -0.16822,0.0589 0.081,0.81855 0.65022,1.98199 0.50764,1.03754 0.92299,1.99537 0.92299,2.1285 0,0.13313 -0.48668,0.24206 -1.0815,0.24206 h -1.0815 l -0.826,-1.96582 c -0.77069,-1.83418 -0.87546,-1.96607 -1.5644,-1.96945 l -0.73838,-0.004 v 1.90791 1.90792 l -1.02347,0.0746 c -0.5629,0.041 -1.07957,-0.0162 -1.14816,-0.12721 z m 4.70676,-6.02677 c 0.16244,-0.16245 0.29535,-0.76772 0.29535,-1.34505 0,-1.06761 -0.37785,-1.50032 -1.23064,-1.40933 -0.20306,0.0217 -0.6184,0.0522 -0.92299,0.0678 -0.50961,0.0261 -0.55379,0.14619 -0.55379,1.50517 v 1.47677 h 1.05836 c 0.58209,0 1.19126,-0.13291 1.35371,-0.29535 z m 8.367258,6.07005 c -0.0856,-0.0856 -0.0606,-0.45074 0.0554,-0.8115 0.11604,-0.36076 0.78706,-2.73265 1.491148,-5.27086 l 1.28014,-4.61493 h 1.13774 1.13773 l 0.4799,1.66138 c 0.26395,0.91375 0.50599,1.77213 0.53788,1.9075 0.0319,0.13537 0.50678,1.79261 1.05533,3.68276 0.54854,1.89014 0.99736,3.47451 0.99736,3.52083 0,0.0463 -0.5261,0.0504 -1.16912,0.009 -1.15976,-0.0744 -1.17087,-0.0834 -1.38868,-1.12106 l -0.21957,-1.04605 h -1.42732 -1.42732 l -0.20561,1.04605 c -0.19748,1.00471 -0.2446,1.04894 -1.192517,1.11916 -0.542811,0.0402 -1.056941,0.003 -1.142511,-0.0825 z m 4.499628,-5.38627 c -0.42202,-1.71866 -0.75731,-2.30752 -0.75731,-1.33002 0,0.33948 -0.1553,1.13324 -0.34511,1.76393 l -0.3451,1.1467 h 0.91781 0.91782 z m 9.5643,5.47201 c -0.0839,-0.40484 -0.12119,-10.24378 -0.0397,-10.47536 0.0658,-0.18696 0.55658,-0.30667 1.251,-0.30513 l 1.14278,0.003 1.23065,2.95301 1.23065,2.953 0.56945,-1.29417 c 0.31321,-0.71179 0.91108,-2.04179 1.32862,-2.95554 l 0.75916,-1.66138 h 1.07115 1.07114 v 5.16872 c 0,2.8428 0,5.25179 0,5.35332 0,0.10153 -0.41534,0.1846 -0.92298,0.1846 h -0.92299 v -3.23793 c 0,-1.78085 -0.0831,-3.18649 -0.18459,-3.12362 -0.10153,0.0629 -0.1846,0.21524 -0.1846,0.33861 0,0.12337 -0.27715,0.83022 -0.61589,1.57078 -0.33874,0.74056 -0.7262,1.63661 -0.86102,1.99121 -0.21112,0.5553 -0.3684,0.63414 -1.13364,0.56833 -0.87323,-0.0751 -0.90514,-0.11644 -1.85532,-2.40305 -0.53174,-1.27965 -0.99049,-2.35058 -1.01943,-2.37985 -0.0289,-0.0293 -0.0526,1.46075 -0.0526,3.31115 v 3.36437 l -0.92299,0.0764 c -0.50764,0.042 -0.93011,0.042 -0.93881,0 z m 16.26037,-5.37575 v -5.42243 l 2.99093,0.0691 c 2.9384,0.0679 2.99249,0.0794 3.07999,0.65515 0.15366,1.01102 -0.28939,1.25063 -2.15599,1.16601 l -1.69977,-0.0771 v 1.31614 1.31614 h 1.59984 1.59985 v 0.98451 0.98452 h -1.59985 -1.59984 v 1.22029 1.2203 l 1.90751,0.0719 c 2.07025,0.078 1.96812,-0.0126 1.81371,1.6102 -0.0216,0.22741 -0.79968,0.30766 -2.98283,0.30766 h -2.95355 z m 13.78238,4.86863 c -0.13004,-0.30459 -0.52287,-1.82751 -0.87296,-3.38428 -0.35008,-1.55677 -0.85048,-3.63145 -1.11199,-4.6104 -0.26151,-0.97896 -0.47548,-1.89878 -0.47548,-2.04406 0,-0.1611 0.44842,-0.23487 1.14957,-0.18912 l 1.14957,0.075 0.77679,3.56888 0.77679,3.56887 0.54054,-2.31962 c 0.29729,-1.27579 0.71201,-2.90947 0.92159,-3.63041 0.37693,-1.29656 0.39155,-1.31079 1.34811,-1.31079 0.53188,0 0.96706,0.0567 0.96706,0.12604 0,0.13945 1.40909,5.61497 1.64607,6.3964 0.0927,0.30582 0.43945,-0.81281 0.91542,-2.95356 l 0.76613,-3.44581 1.04361,-0.0757 c 0.92107,-0.0668 1.04361,-0.0148 1.04361,0.44278 0,0.48514 -1.01286,4.99438 -1.93546,8.61662 l -0.40749,1.59985 h -1.20777 -1.20778 l -0.4387,-1.35372 c -0.24129,-0.74454 -0.62379,-2.0093 -0.85,-2.81057 l -0.41129,-1.45686 -0.77781,2.56444 c -0.4278,1.41045 -0.86407,2.70289 -0.96948,2.87211 -0.10542,0.16921 -0.63054,0.30766 -1.16694,0.30766 -0.77724,0 -1.02327,-0.11244 -1.21171,-0.55379 z m 17.79212,0.39288 c -0.29996,-0.0645 -0.82606,-0.45082 -1.16911,-0.85851 -0.6697,-0.79588 -0.70362,-1.08387 -0.68766,-5.83741 0.0117,-3.4822 0.45656,-3.90312 4.17288,-3.94833 1.77224,-0.0216 2.097,0.0444 2.67781,0.54401 0.86525,0.74426 1.08901,2.17987 0.90557,5.80999 -0.1323,2.61801 -0.18807,2.86124 -0.81779,3.56601 -0.63726,0.71323 -0.78592,0.7588 -2.60606,0.79893 -1.06164,0.0234 -2.17567,-0.0102 -2.47564,-0.0747 z m 3.36722,-2.2842 c 0.2714,-0.50711 0.35648,-5.37191 0.10539,-6.02623 -0.11016,-0.28707 -0.49111,-0.38932 -1.45044,-0.38932 -0.95933,0 -1.34029,0.10225 -1.45044,0.38932 -0.2414,0.62907 -0.1711,5.18255 0.0906,5.87096 0.20847,0.54831 0.38537,0.63135 1.34506,0.63135 0.84059,0 1.16598,-0.11393 1.3598,-0.47608 z m 8.86932,-2.99035 v -5.43546 l 2.93446,0.0821 c 2.7087,0.0758 2.98327,0.12806 3.56888,0.67884 0.58438,0.54964 0.63442,0.76024 0.63442,2.67021 0,1.9625 -0.0376,2.10861 -0.70178,2.72907 -0.48866,0.45648 -0.6396,0.76676 -0.49702,1.02174 0.11262,0.20139 0.53259,1.06442 0.93325,1.91783 0.80049,1.70505 0.72923,1.87022 -0.74505,1.7269 -0.75425,-0.0733 -0.8672,-0.20873 -1.6056,-1.92484 -0.71979,-1.67286 -0.86518,-1.85321 -1.55033,-1.9231 l -0.75606,-0.0771 v 1.98463 1.98463 h -1.10759 -1.10758 z m 4.61493,-0.6659 c 0.19517,-0.0663 0.30766,-0.58986 0.30766,-1.43192 0,-1.45776 0.17682,-1.33027 -1.96904,-1.41968 l -0.73838,-0.0308 v 1.55713 1.55713 l 1.04605,-0.0637 c 0.57532,-0.035 1.18449,-0.11073 1.35371,-0.16822 z m -2.10565,-1.40559 c 0.005,-0.40611 0.0602,-0.54245 0.12258,-0.30298 0.0624,0.23948 0.0583,0.57176 -0.009,0.73839 -0.0674,0.16664 -0.11848,-0.0293 -0.11346,-0.43541 z m 11.08457,2.15364 0.0663,-5.35332 1.03626,-0.0752 1.03627,-0.0752 0.0713,2.1673 0.0713,2.16731 1.47678,-2.15361 1.47677,-2.15362 1.16912,-2e-5 c 0.64301,-10e-6 1.16911,0.044 1.16911,0.0977 0,0.0537 -0.71992,1.15205 -1.59984,2.4407 -0.87991,1.28865 -1.59984,2.4593 -1.59984,2.60145 0,0.14214 0.71993,1.39023 1.59984,2.77353 0.87992,1.38329 1.59984,2.60536 1.59984,2.7157 0,0.11033 -0.5489,0.20061 -1.21979,0.20061 h -1.21979 l -0.98433,-1.66137 c -0.54139,-0.91376 -1.2101,-1.99365 -1.48602,-2.39977 l -0.50167,-0.73838 -0.002,2.39976 -0.002,2.39976 h -1.11239 -1.11238 z m -11.08457,3.50734 c 0.005,-0.40611 0.0602,-0.54245 0.12258,-0.30298 0.0624,0.23948 0.0583,0.57175 -0.009,0.73839 -0.0674,0.16664 -0.11848,-0.0293 -0.11346,-0.43541 z M 44.122864,62.914602 c 0,-0.14336 0.11075,-0.1922 0.24613,-0.10854 0.13537,0.0837 0.24613,0.20096 0.24613,0.26066 0,0.0597 -0.11076,0.10854 -0.24613,0.10854 -0.13538,0 -0.24613,-0.1173 -0.24613,-0.26066 z m 89.052716,-0.1536 c 0.17767,-0.0711 0.38996,-0.0624 0.47175,0.0194 0.0818,0.0818 -0.0636,0.13996 -0.32305,0.12927 -0.28672,-0.0118 -0.34505,-0.0701 -0.1487,-0.1487 z m -13.45211,-0.57026 c 0,-0.33843 0.0559,-0.47687 0.12415,-0.30766 0.0683,0.16921 0.0683,0.44611 0,0.61532 -0.0683,0.16922 -0.12415,0.0308 -0.12415,-0.30766 z m 12.94447,-6.56237 c 0.16921,-0.0683 0.44611,-0.0683 0.61532,0 0.16921,0.0683 0.0308,0.12414 -0.30766,0.12414 -0.33843,0 -0.47688,-0.0559 -0.30766,-0.12414 z m 41.61126,-0.005 c 0.17767,-0.0711 0.38996,-0.0624 0.47175,0.0194 0.0818,0.0818 -0.0636,0.13996 -0.32305,0.12927 -0.28673,-0.0118 -0.34505,-0.0701 -0.1487,-0.1487 z M 73.588074,48.346092 c 0.12984,-0.16921 0.71547,-1.41524 1.3014,-2.76896 0.58593,-1.35371 1.47678,-3.34736 1.97966,-4.43033 0.50288,-1.08297 1.47052,-3.242748 2.1503,-4.799518 0.67977,-1.55677 1.67746,-3.71656 2.21707,-4.79953 l 0.98111,-1.96903 -0.4634,-0.91082 c -0.25487,-0.50096 -0.67318,-1.44304 -0.92958,-2.09353 -0.2564,-0.65048 -0.87733,-2.06813 -1.37985,-3.15031 -0.50252,-1.08219 -1.01561,-2.23033 -1.14019,-2.55143 -0.12459,-0.3211 -1.16557,-2.71885 -2.31329,-5.32833 -1.14773,-2.60948 -2.08678,-4.81113 -2.08678,-4.89256 0,-0.0814 1.4763,-0.14805 3.28068,-0.14805 h 3.28067 l 0.52604,1.16911 c 1.20328,2.67427 4.66348,10.5498 4.78518,10.89123 0.14691,0.41216 1.00966,-1.35554 3.76291,-7.70983 0.98683,-2.27752 1.83665,-4.18337 1.88849,-4.23521 0.10068,-0.10067 3.50633,-0.19142 5.401728,-0.14394 l 1.14325,0.0286 -1.22405,2.89202 c -0.673218,1.59061 -1.378278,3.22429 -1.566788,3.63041 -1.46973,3.16628 -5.2797,12.09435 -5.2797,12.37214 0,0.35389 0.90381,2.47167 2.65052,6.21063 1.80739,3.868838 5.409518,11.932128 5.583318,12.498138 l 0.17223,0.56086 -3.384988,-0.0686 -3.38498,-0.0686 -1.68229,-3.81167 c -0.92525,-2.09641 -2.2012,-5.01969 -2.83543,-6.496158 -1.03852,-2.41763 -1.17698,-2.62594 -1.39282,-2.09544 -0.13182,0.32398 -0.56241,1.30898 -0.95686,2.18889 -0.39445,0.879918 -1.16451,2.652048 -1.71125,3.938078 -0.54673,1.28602 -1.36811,3.14931 -1.82528,4.14064 -0.45717,0.99133 -0.83121,1.90508 -0.83121,2.03057 0,0.12935 -1.5053,0.22815 -3.47595,0.22815 -2.74259,0 -3.42614,-0.0649 -3.23987,-0.30766 z m 31.451836,-0.14358 c -0.54149,-0.25144 -1.32911,-0.7481 -1.75028,-1.10368 -0.42117,-0.35558 -0.83652,-0.59423 -0.92299,-0.53032 -0.0865,0.0639 -0.11182,0.0523 -0.0563,-0.0257 0.0555,-0.0781 -0.11698,-0.63444 -0.38327,-1.23642 -0.46425,-1.04953 -0.48377,-1.70114 -0.47504,-15.856588 0.009,-14.16934 0.0285,-14.80007 0.49183,-15.70829 0.26549,-0.52041 0.88102,-1.29592 1.36783,-1.72334 1.63149,-1.43247 2.08441,-1.51462 8.34227,-1.51311 3.13085,7.5e-4 6.08734,0.11107 6.56999,0.24515 1.14331,0.31761 2.82717,1.77206 3.43821,2.9698 0.41294,0.80943 0.48377,1.4542 0.48377,4.40388 v 3.45562 h -3.07661 -3.07662 v -1.84597 c 0,-2.20135 0.0101,-2.10559 -0.27906,-2.64589 -0.20357,-0.38036 -0.65547,-0.43073 -3.86458,-0.43073 -2.49831,0 -3.72636,0.0923 -3.92941,0.29536 -0.36915,0.36915 -0.42242,24.719988 -0.0554,25.300628 0.1844,0.29167 0.94547,0.3824 3.68017,0.43873 4.35959,0.0898 4.44823,0.0325 4.44823,-2.87739 v -1.947878 l 3.07662,-0.0258 3.07661,-0.0258 v 3.089128 c 0,3.46028 -0.24925,4.38299 -1.55078,5.74078 -1.72249,1.79696 -2.08517,1.87861 -8.66359,1.95043 -5.3217,0.0581 -6.00467,0.0192 -6.89162,-0.39267 z m 26.19058,0.12174 c -1.29974,-0.47633 -2.62792,-1.57717 -3.31274,-2.74572 l -0.60313,-1.02916 0.004,-15.115338 0.004,-15.11534 0.54974,-0.96846 c 0.30236,-0.53265 1.09968,-1.36334 1.77183,-1.84597 l 1.22209,-0.87751 6.33535,-0.0731 c 6.04517,-0.0698 6.39231,-0.0486 7.57883,0.4618 1.33635,0.57488 2.57701,1.80129 3.10812,3.07241 0.26205,0.62717 0.33564,3.79987 0.358,15.4339 0.0272,14.170108 0.0123,14.675258 -0.46199,15.596038 -0.58788,1.14137 -1.7685,2.37874 -2.83289,2.96906 -0.67096,0.37212 -1.60232,0.44001 -6.80748,0.49618 -4.50991,0.0487 -6.25295,-0.0166 -6.91383,-0.25877 z m 10.12969,-5.83239 c 0.46116,-0.24681 0.47596,-0.64608 0.47231,-12.737198 -0.002,-6.86533 -0.0935,-12.62377 -0.20312,-12.79654 -0.1511,-0.2381 -1.14808,-0.29767 -4.1189,-0.24613 l -3.91955,0.068 v 12.66839 12.668398 l 0.61533,0.31131 c 0.7581,0.38353 6.46144,0.43437 7.15393,0.0638 z m 12.04416,-12.944358 v -19.04381 h 8.00712 c 6.23684,0 8.18617,0.0748 8.81702,0.3384 1.24533,0.52033 2.64252,1.87629 3.2219,3.12683 0.50182,1.08311 0.5214,1.43755 0.46636,8.44007 -0.0556,7.07835 -0.0754,7.34543 -0.62434,8.44657 -0.35174,0.70553 -1.05538,1.50615 -1.85397,2.10948 -1.05579,0.79764 -1.24518,1.05067 -1.05393,1.40802 0.12824,0.23961 0.5226,1.41869 0.87637,2.62018 2.14902,7.298618 3.30679,11.314388 3.30857,11.475908 0.001,0.10153 -1.43337,0.1846 -3.18777,0.1846 h -3.1898 l -0.256,-0.92298 c -0.14079,-0.50765 -0.79329,-2.86126 -1.44998,-5.23026 -0.6567,-2.36899 -1.4474,-5.221018 -1.75712,-6.337828 l -0.56313,-2.03057 h -2.30403 -2.30403 v 7.118198 7.1182 l -0.67686,0.13538 c -0.37227,0.0745 -1.75674,0.12459 -3.07661,0.1114 l -2.39977,-0.024 z m 14.21896,-6.95225 c 0.0464,-3.67288 -0.0184,-5.36283 -0.21473,-5.59944 -0.21651,-0.26088 -1.15251,-0.33889 -4.06612,-0.33889 h -3.78487 l -4.2e-4,5.72251 -4.3e-4,5.72251 4.00003,-0.12306 4.00003,-0.12307 z m 11.5713,23.474138 c -0.0384,-1.35371 -0.0405,-9.905488 -0.005,-19.003958 l 0.0649,-16.54267 8.7342,-0.0127 8.7342,-0.0127 0.0291,0.55691 c 0.016,0.30631 0.0206,0.62616 0.0102,0.7108 -0.0104,0.0846 -0.0379,1.04261 -0.0611,2.12884 l -0.0422,1.97496 -1.01037,-0.11608 c -0.5557,-0.0638 -1.1505,-0.23238 -1.32179,-0.37454 -0.17128,-0.14215 -0.31143,-0.15629 -0.31143,-0.0314 0,0.49844 0.64392,0.81775 1.64907,0.81775 0.5821,0 1.05836,0.11076 1.05836,0.24613 0,0.15703 -2.0716,0.24614 -5.72251,0.24615 l -5.72251,2e-5 -0.008,4.92257 -0.008,4.92257 h 4.74595 4.74595 v 2.70742 2.70743 l -4.73799,1.4e-4 -4.73799,1.4e-4 -0.0393,5.41471 -0.0393,5.414698 h 5.76183 5.76183 v 2.83049 2.83049 l -2.15364,0.0482 c -1.18449,0.0265 -5.11272,0.0542 -8.72939,0.0615 l -6.57577,0.0134 z M 160.24982,34.456244 c 0.17767,-0.0711 0.38996,-0.0624 0.47175,0.0194 0.0818,0.0818 -0.0636,0.13996 -0.32305,0.12927 -0.28672,-0.0118 -0.34505,-0.0701 -0.1487,-0.1487 z m 14.09496,-5.63642 c 0.0118,-0.28673 0.0701,-0.34505 0.1487,-0.1487 0.0711,0.17767 0.0624,0.38996 -0.0194,0.47174 -0.0818,0.0818 -0.13996,-0.0636 -0.12927,-0.32304 z M 5.0453851,22.317904 c 0,-0.4738 0.0506,-0.66763 0.11256,-0.43073 0.0619,0.2369 0.0619,0.62456 0,0.86146 -0.0619,0.2369 -0.11256,0.0431 -0.11256,-0.43073 z M 185.84728,16.981054 c 0.17768,-0.0711 0.38996,-0.0624 0.47175,0.0194 0.0818,0.0818 -0.0636,0.13996 -0.32304,0.12927 -0.28673,-0.0118 -0.34505,-0.0701 -0.14871,-0.1487 z m -11.47395,-0.69332 c 0.005,-0.40612 0.0602,-0.54246 0.12258,-0.30298 0.0624,0.23948 0.0583,0.57175 -0.009,0.73839 -0.0674,0.16664 -0.11848,-0.0293 -0.11346,-0.43541 z"
         id="path1-5-1" /></g></g></svg>
